<?xml version="1.0" encoding="utf-8"?>
<!-- Generator: Adobe Illustrator 23.0.1, SVG Export Plug-In . SVG Version: 6.00 Build 0)  -->
<svg version="1.1" xmlns="http://www.w3.org/2000/svg" xmlns:xlink="http://www.w3.org/1999/xlink" x="0px" y="0px"
	 viewBox="0 0 600 600" style="enable-background:new 0 0 600 600;" xml:space="preserve">
<style type="text/css">
	.st0{fill:#FFFFFF;}
	.st1{display:none;}
	.st2{display:inline;}
</style>
<g id="artwork" inkscape:version="0.48.1 " sodipodi:docname="æ–°è¦ãƒ‰ã‚­ãƒ¥ãƒ¡ãƒ³ãƒˆ 12" xmlns:cc="http://creativecommons.org/ns#" xmlns:dc="http://purl.org/dc/elements/1.1/" xmlns:inkscape="http://www.inkscape.org/namespaces/inkscape" xmlns:rdf="http://www.w3.org/1999/02/22-rdf-syntax-ns#" xmlns:sodipodi="http://sodipodi.sourceforge.net/DTD/sodipodi-0.dtd" xmlns:svg="http://www.w3.org/2000/svg">
	
		<sodipodi:namedview  bordercolor="#666666" borderopacity="1.0" id="base" inkscape:current-layer="layer1" inkscape:cx="-205.04231" inkscape:cy="579.64317" inkscape:document-units="px" inkscape:pageopacity="0.0" inkscape:pageshadow="2" inkscape:window-height="715" inkscape:window-maximized="1" inkscape:window-width="1024" inkscape:window-x="-8" inkscape:window-y="-8" inkscape:zoom="0.24748737" pagecolor="#ffffff" showgrid="false">
		</sodipodi:namedview>
	<path d="M172.4,82.5h-0.4v0.1l0,113h0v239.8c-19.2-4.2-41-3.8-63,2.1C50.9,453.1,13.4,501,25,544.5s68.1,66.2,126.1,50.6
		c50.6-13.6,85.7-51.8,86-90.2h0V182.3l274.7-56v240.2c-19.2-4.2-41-3.8-63,2.1c-58,15.5-95.6,63.4-83.9,106.9
		c11.7,43.5,68.1,66.2,126.1,50.6c50.6-13.6,85.7-51.8,86-90.2h0V113V13.5V0L172.4,82.5z"/>
	<path class="st0" d="M114.6,580c-35.5,0-63.7-16.4-70.2-40.7c-4-14.8,0.4-31.3,12.2-46.4c13.2-16.8,33.6-29.6,57.5-36
		c10.4-2.8,21-4.2,31.4-4.2c7.7,0,15.1,0.8,22.2,2.3l24.2,5.2V99l365.2-74.5V435l0,0.7c-0.1,13.7-6.8,28.2-18.7,40.9
		c-13.1,13.9-31.8,24.6-52.5,30.2c-10.4,2.8-21,4.2-31.4,4.2c-35.5,0-63.7-16.4-70.2-40.7c-4-14.8,0.4-31.3,12.2-46.4
		c13.2-16.8,33.6-29.6,57.5-36c10.4-2.8,21-4.2,31.4-4.2c7.7,0,15.1,0.8,22.2,2.3l24.2,5.2V101.8L217.2,166v338.2l0,0.6
		c-0.1,13.7-6.8,28.2-18.7,40.9c-13.1,13.9-31.8,24.6-52.5,30.2C135.5,578.6,125,580,114.6,580z"/>
</g>
<g id="cutline" class="st1">
	<path class="st2" d="M172.4,82.5h-0.4v0.1l0,113h0v239.8c-19.2-4.2-41-3.8-63,2.1C50.9,453.1,13.4,501,25,544.5
		c11.7,43.5,68.1,66.2,126.1,50.6c50.6-13.6,85.7-51.8,86-90.2h0V182.3l274.7-56v240.2c-19.2-4.2-41-3.8-63,2.1
		c-58,15.5-95.6,63.4-83.9,106.9c11.7,43.5,68.1,66.2,126.1,50.6c50.6-13.6,85.7-51.8,86-90.2h0V113V13.5V0L172.4,82.5z"/>
</g>
</svg>
